<?xml version="1.0"?>
<svg xmlns="http://www.w3.org/2000/svg" width="593" height="200" version="1.0" id="ezcGraph"><defs><linearGradient id="Definition_LinearGradient_214_101_378_101_ffffffbf_0000007f"><stop offset="0" style="stop-color: #ffffff; stop-opacity: 0.25;"/><stop offset="1" style="stop-color: #000000; stop-opacity: 0.50;"/></linearGradient><linearGradient xmlns:xlink="http://www.w3.org/1999/xlink" id="LinearGradient_214_101_378_101_ffffffbf_0000007f" x1="214.6000" y1="101.0000" x2="378.4000" y2="101.0000" gradientUnits="userSpaceOnUse" xlink:href="#Definition_LinearGradient_214_101_378_101_ffffffbf_0000007f"/><linearGradient id="Definition_LinearGradient_296_101_214_43_ffffffff_ffffff19"><stop offset="0" style="stop-color: #ffffff; stop-opacity: 0.00;"/><stop offset="1" style="stop-color: #ffffff; stop-opacity: 0.90;"/></linearGradient><linearGradient xmlns:xlink="http://www.w3.org/1999/xlink" id="LinearGradient_296_101_214_43_ffffffff_ffffff19" x1="296.5000" y1="101.0000" x2="214.6000" y2="43.4800" gradientUnits="userSpaceOnUse" xlink:href="#Definition_LinearGradient_296_101_214_43_ffffffff_ffffff19"/><linearGradient id="Definition_RadialGradient_238_141_163_115_0.00_ffffff19_ffffffcc"><stop offset="0" style="stop-color: #ffffff; stop-opacity: 0.90;"/><stop offset="1" style="stop-color: #ffffff; stop-opacity: 0.20;"/></linearGradient><radialGradient xmlns:xlink="http://www.w3.org/1999/xlink" id="RadialGradient_238_141_163_115_0.00_ffffff19_ffffffcc" cx="238.5880" cy="141.6728" fx="238.5880" fy="141.6728" r="163.8" gradientUnits="userSpaceOnUse" xlink:href="#Definition_RadialGradient_238_141_163_115_0.00_ffffff19_ffffffcc"/></defs><path d=" M 0.0000,200.0000 L 0.0000,0.0000 L 593.0000,0.0000 L 593.0000,200.0000 L 0.0000,200.0000 z " style="fill: #ffffff; fill-opacity: 0.00; stroke: none;" id="ezcGraphPolygon_1"/><path d=" M 0.0000,18.0000 L 0.0000,0.0000 L 593.0000,0.0000 L 593.0000,18.0000 L 0.0000,18.0000 z " style="fill: #000000; fill-opacity: 0.00; stroke: none;" id="ezcGraphPolygon_2"/><ellipse cx="296.5000" cy="117.0000" rx="96.9000" ry="72.5200" style="fill: #000000; fill-opacity: 0.02; stroke: none;" id="ezcGraphCircle_4"/><ellipse cx="296.5000" cy="117.0000" rx="95.9000" ry="71.5200" style="fill: #000000; fill-opacity: 0.02; stroke: none;" id="ezcGraphCircle_5"/><ellipse cx="296.5000" cy="117.0000" rx="94.9000" ry="70.5200" style="fill: #000000; fill-opacity: 0.02; stroke: none;" id="ezcGraphCircle_6"/><ellipse cx="296.5000" cy="117.0000" rx="93.9000" ry="69.5200" style="fill: #000000; fill-opacity: 0.02; stroke: none;" id="ezcGraphCircle_7"/><ellipse cx="296.5000" cy="117.0000" rx="92.9000" ry="68.5200" style="fill: #000000; fill-opacity: 0.02; stroke: none;" id="ezcGraphCircle_8"/><ellipse cx="296.5000" cy="117.0000" rx="91.9000" ry="67.5200" style="fill: #000000; fill-opacity: 0.02; stroke: none;" id="ezcGraphCircle_9"/><ellipse cx="296.5000" cy="117.0000" rx="90.9000" ry="66.5200" style="fill: #000000; fill-opacity: 0.02; stroke: none;" id="ezcGraphCircle_10"/><ellipse cx="296.5000" cy="117.0000" rx="89.9000" ry="65.5200" style="fill: #000000; fill-opacity: 0.02; stroke: none;" id="ezcGraphCircle_11"/><ellipse cx="296.5000" cy="117.0000" rx="88.9000" ry="64.5200" style="fill: #000000; fill-opacity: 0.02; stroke: none;" id="ezcGraphCircle_12"/><ellipse cx="296.5000" cy="117.0000" rx="87.9000" ry="63.5200" style="fill: #000000; fill-opacity: 0.02; stroke: none;" id="ezcGraphCircle_13"/><ellipse cx="296.5000" cy="117.0000" rx="86.9000" ry="62.5200" style="fill: #000000; fill-opacity: 0.02; stroke: none;" id="ezcGraphCircle_14"/><ellipse cx="296.5000" cy="117.0000" rx="85.9000" ry="61.5200" style="fill: #000000; fill-opacity: 0.02; stroke: none;" id="ezcGraphCircle_15"/><ellipse cx="296.5000" cy="117.0000" rx="84.9000" ry="60.5200" style="fill: #000000; fill-opacity: 0.02; stroke: none;" id="ezcGraphCircle_16"/><ellipse cx="296.5000" cy="117.0000" rx="83.9000" ry="59.5200" style="fill: #000000; fill-opacity: 0.02; stroke: none;" id="ezcGraphCircle_17"/><ellipse cx="296.5000" cy="117.0000" rx="82.9000" ry="58.5200" style="fill: #000000; fill-opacity: 0.02; stroke: none;" id="ezcGraphCircle_18"/><path d="M 378.40,117.00 A 81.90,57.52 0 0,0 225.34,88.52 L 225.34,72.52 A 81.90,57.520000 0 0,1 378.40,101.00 z" style="fill: #e1ce9a; fill-opacity: 1.00; stroke: none;" id="ezcGraphCircularArc_19"/><path d="M 378.40,117.00 A 81.90,57.52 0 0,0 225.34,88.52 L 225.34,72.52 A 81.90,57.520000 0 0,1 378.40,101.00 z" style="fill: url(#LinearGradient_214_101_378_101_ffffffbf_0000007f); stroke: none;" id="ezcGraphCircularArc_20"/><path d=" M 225.3409,72.5236 L 296.5000,101.0000 L 296.5000,117.0000 L 225.3409,88.5236 L 225.3409,72.5236 z " style="fill: #4448c2; fill-opacity: 1.00; stroke: none;" id="ezcGraphPolygon_21"/><path d=" M 296.0000,101.3385 L 296.0000,116.2614 L 225.8409,88.1852 L 225.8409,73.2623 L 296.0000,101.3385 z " style="fill: none; stroke: #4448c2; stroke-width: 1; stroke-opacity: 1.00; stroke-linecap: round; stroke-linejoin: round;" id="ezcGraphPolygon_22"/><path d=" M 225.3409,72.5236 L 296.5000,101.0000 L 296.5000,117.0000 L 225.3409,88.5236 L 225.3409,72.5236 z " style="fill: #e1ce9a; fill-opacity: 1.00; stroke: none;" id="ezcGraphPolygon_23"/><path d=" M 296.0000,101.3385 L 296.0000,116.2614 L 225.8409,88.1852 L 225.8409,73.2623 L 296.0000,101.3385 z " style="fill: none; stroke: #e1ce9a; stroke-width: 1; stroke-opacity: 1.00; stroke-linecap: round; stroke-linejoin: round;" id="ezcGraphPolygon_24"/><path d=" M 378.4000,101.0000 L 296.5000,101.0000 L 296.5000,117.0000 L 378.4000,117.0000 L 378.4000,101.0000 z " style="fill: #425b8a; fill-opacity: 1.00; stroke: none;" id="ezcGraphPolygon_25"/><path d=" M 297.0000,101.5000 L 297.0000,116.5000 L 377.9000,116.5000 L 377.9000,101.5000 L 297.0000,101.5000 z " style="fill: none; stroke: #425b8a; stroke-width: 1; stroke-opacity: 1.00; stroke-linecap: round; stroke-linejoin: round;" id="ezcGraphPolygon_26"/><path d=" M 378.4000,101.0000 L 296.5000,101.0000 L 296.5000,117.0000 L 378.4000,117.0000 L 378.4000,101.0000 z " style="fill: #e1ce9a; fill-opacity: 1.00; stroke: none;" id="ezcGraphPolygon_27"/><path d=" M 297.0000,101.5000 L 297.0000,116.5000 L 377.9000,116.5000 L 377.9000,101.5000 L 297.0000,101.5000 z " style="fill: none; stroke: #e1ce9a; stroke-width: 1; stroke-opacity: 1.00; stroke-linecap: round; stroke-linejoin: round;" id="ezcGraphPolygon_28"/><path d="M 214.60,117.00 A 81.90,57.52 0 0,0 236.30,156.00 L 236.30,140.00 A 81.90,57.520000 0 0,1 214.60,101.00 z" style="fill: #4448c2; fill-opacity: 1.00; stroke: none;" id="ezcGraphCircularArc_29"/><path d="M 214.60,117.00 A 81.90,57.52 0 0,0 236.30,156.00 L 236.30,140.00 A 81.90,57.520000 0 0,1 214.60,101.00 z" style="fill: url(#LinearGradient_214_101_378_101_ffffffbf_0000007f); stroke: none;" id="ezcGraphCircularArc_30"/><path d="M 225.34,88.52 A 81.90,57.52 0 0,0 214.60,117.00 L 214.60,101.00 A 81.90,57.520000 0 0,1 225.34,72.52 z" style="fill: #4448c2; fill-opacity: 1.00; stroke: none;" id="ezcGraphCircularArc_31"/><path d="M 225.34,88.52 A 81.90,57.52 0 0,0 214.60,117.00 L 214.60,101.00 A 81.90,57.520000 0 0,1 225.34,72.52 z" style="fill: url(#LinearGradient_214_101_378_101_ffffffbf_0000007f); stroke: none;" id="ezcGraphCircularArc_32"/><path d=" M 236.2961,139.9968 L 296.5000,101.0000 L 296.5000,117.0000 L 236.2961,155.9968 L 236.2961,139.9968 z " style="fill: #ff7c24; fill-opacity: 1.00; stroke: none;" id="ezcGraphPolygon_33"/><path d=" M 296.0000,101.9196 L 296.0000,116.7281 L 236.7961,155.0772 L 236.7961,140.2686 L 296.0000,101.9196 z " style="fill: none; stroke: #ff7c24; stroke-width: 1; stroke-opacity: 1.00; stroke-linecap: round; stroke-linejoin: round;" id="ezcGraphPolygon_34"/><path d=" M 236.2961,139.9968 L 296.5000,101.0000 L 296.5000,117.0000 L 236.2961,155.9968 L 236.2961,139.9968 z " style="fill: #4448c2; fill-opacity: 1.00; stroke: none;" id="ezcGraphPolygon_35"/><path d=" M 296.0000,101.9196 L 296.0000,116.7281 L 236.7961,155.0772 L 236.7961,140.2686 L 296.0000,101.9196 z " style="fill: none; stroke: #4448c2; stroke-width: 1; stroke-opacity: 1.00; stroke-linecap: round; stroke-linejoin: round;" id="ezcGraphPolygon_36"/><path d=" M 263.9803,153.7913 L 296.5000,101.0000 L 296.5000,117.0000 L 263.9803,169.7913 L 263.9803,153.7913 z " style="fill: #dfede0; fill-opacity: 1.00; stroke: none;" id="ezcGraphPolygon_37"/><path d=" M 296.0000,102.7650 L 296.0000,116.8584 L 264.4803,168.0263 L 264.4803,153.9329 L 296.0000,102.7650 z " style="fill: none; stroke: #dfede0; stroke-width: 1; stroke-opacity: 1.00; stroke-linecap: round; stroke-linejoin: round;" id="ezcGraphPolygon_38"/><path d=" M 263.9803,153.7913 L 296.5000,101.0000 L 296.5000,117.0000 L 263.9803,169.7913 L 263.9803,153.7913 z " style="fill: #ff7c24; fill-opacity: 1.00; stroke: none;" id="ezcGraphPolygon_39"/><path d=" M 296.0000,102.7650 L 296.0000,116.8584 L 264.4803,168.0263 L 264.4803,153.9329 L 296.0000,102.7650 z " style="fill: none; stroke: #ff7c24; stroke-width: 1; stroke-opacity: 1.00; stroke-linecap: round; stroke-linejoin: round;" id="ezcGraphPolygon_40"/><path d=" M 283.4469,157.7847 L 296.5000,101.0000 L 296.5000,117.0000 L 283.4469,173.7847 L 283.4469,157.7847 z " style="fill: #425b8a; fill-opacity: 1.00; stroke: none;" id="ezcGraphPolygon_41"/><path d=" M 296.0000,105.4070 L 296.0000,116.9433 L 283.9469,169.3777 L 283.9469,157.8415 L 296.0000,105.4070 z " style="fill: none; stroke: #425b8a; stroke-width: 1; stroke-opacity: 1.00; stroke-linecap: round; stroke-linejoin: round;" id="ezcGraphPolygon_42"/><path d=" M 283.4469,157.7847 L 296.5000,101.0000 L 296.5000,117.0000 L 283.4469,173.7847 L 283.4469,157.7847 z " style="fill: #dfede0; fill-opacity: 1.00; stroke: none;" id="ezcGraphPolygon_43"/><path d=" M 296.0000,105.4070 L 296.0000,116.9433 L 283.9469,169.3777 L 283.9469,157.8415 L 296.0000,105.4070 z " style="fill: none; stroke: #dfede0; stroke-width: 1; stroke-opacity: 1.00; stroke-linecap: round; stroke-linejoin: round;" id="ezcGraphPolygon_44"/><path d="M 283.45,173.78 A 81.90,57.52 0 0,0 378.40,117.00 L 378.40,101.00 A 81.90,57.520000 0 0,1 283.45,157.78 z" style="fill: #425b8a; fill-opacity: 1.00; stroke: none;" id="ezcGraphCircularArc_45"/><path d="M 283.45,173.78 A 81.90,57.52 0 0,0 378.40,117.00 L 378.40,101.00 A 81.90,57.520000 0 0,1 283.45,157.78 z" style="fill: url(#LinearGradient_214_101_378_101_ffffffbf_0000007f); stroke: none;" id="ezcGraphCircularArc_46"/><path d="M 236.30,156.00 A 81.90,57.52 0 0,0 263.98,169.79 L 263.98,153.79 A 81.90,57.520000 0 0,1 236.30,140.00 z" style="fill: #ff7c24; fill-opacity: 1.00; stroke: none;" id="ezcGraphCircularArc_47"/><path d="M 236.30,156.00 A 81.90,57.52 0 0,0 263.98,169.79 L 263.98,153.79 A 81.90,57.520000 0 0,1 236.30,140.00 z" style="fill: url(#LinearGradient_214_101_378_101_ffffffbf_0000007f); stroke: none;" id="ezcGraphCircularArc_48"/><path d="M 263.98,169.79 A 81.90,57.52 0 0,0 283.45,173.78 L 283.45,157.78 A 81.90,57.520000 0 0,1 263.98,153.79 z" style="fill: #dfede0; fill-opacity: 1.00; stroke: none;" id="ezcGraphCircularArc_49"/><path d="M 263.98,169.79 A 81.90,57.52 0 0,0 283.45,173.78 L 283.45,157.78 A 81.90,57.520000 0 0,1 263.98,153.79 z" style="fill: url(#LinearGradient_214_101_378_101_ffffffbf_0000007f); stroke: none;" id="ezcGraphCircularArc_50"/><path d="M 296.50,101.00 L 378.40,101.00 A 81.90,57.52 0 0,1 283.45,157.78 z" style="fill: #425b8a; fill-opacity: 1.00; stroke: none;" id="ezcGraphCircleSector_51"/><path d="M 296.50,101.00 L 376.40,101.00 A 79.90,55.92 0 0,1 283.77,156.21 z" style="fill: url(#LinearGradient_296_101_214_43_ffffffff_ffffff19); stroke: none;" id="ezcGraphCircleSector_52"/><path d="M 296.93,101.50 L 377.90,101.50 A 81.40,57.02 0 0,1 284.06,157.35 z" style="fill: none; stroke: #425b8a; stroke-width: 1; stroke-opacity: 1.00; stroke-linecap: round; stroke-linejoin: round;" id="ezcGraphCircleSector_53"/><path d="M 378.40,101.00  A 81.90,57.52 0 0,1 283.45,157.78" style="fill: none; stroke: url(#RadialGradient_238_141_163_115_0.00_ffffff19_ffffffcc);" id="ezcGraphCircularArc_54"/><path d="M 296.50,101.00 L 283.45,157.78 A 81.90,57.52 0 0,1 263.98,153.79 z" style="fill: #dfede0; fill-opacity: 1.00; stroke: none;" id="ezcGraphCircleSector_55"/><path d="M 296.50,101.00 L 283.77,156.21 A 79.90,55.92 0 0,1 264.77,152.32 z" style="fill: url(#LinearGradient_296_101_214_43_ffffffff_ffffff19); stroke: none;" id="ezcGraphCircleSector_56"/><path d="M 295.11,104.79 L 283.06,157.24 A 81.40,57.02 0 0,1 264.72,153.51 z" style="fill: none; stroke: #dfede0; stroke-width: 1; stroke-opacity: 1.00; stroke-linecap: round; stroke-linejoin: round;" id="ezcGraphCircleSector_57"/><path d="M 283.45,157.78  A 81.90,57.52 0 0,1 263.98,153.79" style="fill: none; stroke: url(#RadialGradient_238_141_163_115_0.00_ffffff19_ffffffcc);" id="ezcGraphCircularArc_58"/><path d="M 296.50,101.00 L 263.98,153.79 A 81.90,57.52 0 0,1 236.30,140.00 z" style="fill: #ff7c24; fill-opacity: 1.00; stroke: none;" id="ezcGraphCircleSector_59"/><path d="M 296.50,101.00 L 264.77,152.32 A 79.90,55.92 0 0,1 237.77,138.91 z" style="fill: url(#LinearGradient_296_101_214_43_ffffffff_ffffff19); stroke: none;" id="ezcGraphCircleSector_60"/><path d="M 294.84,102.75 L 263.76,153.22 A 81.40,57.02 0 0,1 237.11,140.03 z" style="fill: none; stroke: #ff7c24; stroke-width: 1; stroke-opacity: 1.00; stroke-linecap: round; stroke-linejoin: round;" id="ezcGraphCircleSector_61"/><path d="M 263.98,153.79  A 81.90,57.52 0 0,1 236.30,140.00" style="fill: none; stroke: url(#RadialGradient_238_141_163_115_0.00_ffffff19_ffffffcc);" id="ezcGraphCircularArc_62"/><path d="M 296.50,101.00 L 236.30,140.00 A 81.90,57.52 0 0,1 225.34,72.52 z" style="fill: #4448c2; fill-opacity: 1.00; stroke: none;" id="ezcGraphCircleSector_63"/><path d="M 296.50,101.00 L 237.77,138.91 A 79.90,55.92 0 0,1 227.08,73.32 z" style="fill: url(#LinearGradient_296_101_214_43_ffffffff_ffffff19); stroke: none;" id="ezcGraphCircleSector_64"/><path d="M 295.65,100.95 L 236.32,139.42 A 81.40,57.02 0 0,1 225.49,73.10 z" style="fill: none; stroke: #4448c2; stroke-width: 1; stroke-opacity: 1.00; stroke-linecap: round; stroke-linejoin: round;" id="ezcGraphCircleSector_65"/><path d="M 236.30,140.00  A 81.90,57.52 0 0,1 214.60,101.00" style="fill: none; stroke: url(#RadialGradient_238_141_163_115_0.00_ffffff19_ffffffcc);" id="ezcGraphCircularArc_66"/><path d="M 214.60,101.00  A 81.90,57.52 0 0,1 225.34,72.52" style="fill: none; stroke: url(#RadialGradient_238_141_163_115_0.00_ffffff19_ffffffcc);" id="ezcGraphCircularArc_67"/><path d="M 296.50,101.00 L 225.34,72.52 A 81.90,57.52 0 0,1 378.40,101.00 z" style="fill: #e1ce9a; fill-opacity: 1.00; stroke: none;" id="ezcGraphCircleSector_68"/><path d="M 296.50,101.00 L 227.08,73.32 A 79.90,55.92 0 0,1 376.40,101.00 z" style="fill: url(#LinearGradient_296_101_214_43_ffffffff_ffffff19); stroke: none;" id="ezcGraphCircleSector_69"/><path d="M 296.56,100.49 L 226.12,72.32 A 81.40,57.02 0 0,1 377.90,100.50 z" style="fill: none; stroke: #e1ce9a; stroke-width: 1; stroke-opacity: 1.00; stroke-linecap: round; stroke-linejoin: round;" id="ezcGraphCircleSector_70"/><path d="M 225.34,72.52  A 81.90,57.52 0 0,1 378.40,101.00" style="fill: none; stroke: url(#RadialGradient_238_141_163_115_0.00_ffffff19_ffffffcc);" id="ezcGraphCircularArc_71"/><path d=" M 242.2516,105.0787 L 199.5000,109.0000" style="fill: none; stroke: #17568e; stroke-width: 1; stroke-opacity: 1.00; stroke-linecap: round; stroke-linejoin: round;" id="ezcGraphLine_72"/><ellipse cx="242.2516" cy="105.0787" rx="3.0000" ry="3.0000" style="fill: #17568e; fill-opacity: 1.00; stroke: none;" id="ezcGraphCircle_73"/><ellipse cx="199.5000" cy="109.0000" rx="3.0000" ry="3.0000" style="fill: #17568e; fill-opacity: 1.00; stroke: none;" id="ezcGraphCircle_74"/><path d=" M 264.9063,130.3610 L 215.1342,160.0000" style="fill: none; stroke: #17568e; stroke-width: 1; stroke-opacity: 1.00; stroke-linecap: round; stroke-linejoin: round;" id="ezcGraphLine_76"/><ellipse cx="264.9063" cy="130.3610" rx="3.0000" ry="3.0000" style="fill: #17568e; fill-opacity: 1.00; stroke: none;" id="ezcGraphCircle_77"/><ellipse cx="215.1342" cy="160.0000" rx="3.0000" ry="3.0000" style="fill: #17568e; fill-opacity: 1.00; stroke: none;" id="ezcGraphCircle_78"/><path d=" M 281.1913,135.5560 L 231.4038,178.2000" style="fill: none; stroke: #17568e; stroke-width: 1; stroke-opacity: 1.00; stroke-linecap: round; stroke-linejoin: round;" id="ezcGraphLine_80"/><ellipse cx="281.1913" cy="135.5560" rx="3.0000" ry="3.0000" style="fill: #17568e; fill-opacity: 1.00; stroke: none;" id="ezcGraphCircle_81"/><ellipse cx="231.4038" cy="178.2000" rx="3.0000" ry="3.0000" style="fill: #17568e; fill-opacity: 1.00; stroke: none;" id="ezcGraphCircle_82"/><path d=" M 310.4816,66.2003 L 347.6664,30.0000" style="fill: none; stroke: #17568e; stroke-width: 1; stroke-opacity: 1.00; stroke-linecap: round; stroke-linejoin: round;" id="ezcGraphLine_84"/><ellipse cx="310.4816" cy="66.2003" rx="3.0000" ry="3.0000" style="fill: #17568e; fill-opacity: 1.00; stroke: none;" id="ezcGraphCircle_85"/><ellipse cx="347.6664" cy="30.0000" rx="3.0000" ry="3.0000" style="fill: #17568e; fill-opacity: 1.00; stroke: none;" id="ezcGraphCircle_86"/><path d=" M 331.8979,128.4094 L 380.4230,156.0000" style="fill: none; stroke: #17568e; stroke-width: 1; stroke-opacity: 1.00; stroke-linecap: round; stroke-linejoin: round;" id="ezcGraphLine_88"/><ellipse cx="331.8979" cy="128.4094" rx="3.0000" ry="3.0000" style="fill: #17568e; fill-opacity: 1.00; stroke: none;" id="ezcGraphCircle_89"/><ellipse cx="380.4230" cy="156.0000" rx="3.0000" ry="3.0000" style="fill: #17568e; fill-opacity: 1.00; stroke: none;" id="ezcGraphCircle_90"/><g id="ezcGraphTextBox_3"><path d=" M 296.0000,18.0000 L 296.0000,0.5000 L 297.5000,0.5000 L 297.5000,18.0000 L 296.0000,18.0000 z " style="fill: #ffffff; fill-opacity: 0.00; stroke: none;" id="ezcGraphPolygon_92"/><text id="ezcGraphTextBox_3_text" x="296.5000" text-length="0.0000px" y="14.6000" style="font-size: 16px; font-family: 'arial'; fill: #113388; fill-opacity: 1.00; stroke: none;"></text></g><g id="ezcGraphTextBox_75"><path d=" M 12.8000,115.0000 L 12.8000,103.5000 L 194.5000,103.5000 L 194.5000,115.0000 L 12.8000,115.0000 z " style="fill: #ffffff; fill-opacity: 0.00; stroke: none;" id="ezcGraphPolygon_93"/><text id="ezcGraphTextBox_75_text" x="13.3000" text-length="180.2000px" y="112.5000" style="font-size: 10px; font-family: 'arial'; fill: #113388; fill-opacity: 1.00; stroke: none;">Actions des pays de la zone Euro..</text></g><g id="ezcGraphTextBox_79"><path d=" M 102.6342,166.0000 L 102.6342,154.5000 L 210.1342,154.5000 L 210.1342,166.0000 L 102.6342,166.0000 z " style="fill: #ffffff; fill-opacity: 0.00; stroke: none;" id="ezcGraphPolygon_94"/><text id="ezcGraphTextBox_79_text" x="103.1342" text-length="106.0000px" y="163.5000" style="font-size: 10px; font-family: 'arial'; fill: #113388; fill-opacity: 1.00; stroke: none;">Diversifi&#xE9;s (6.64%) </text></g><g id="ezcGraphTextBox_83"><path d=" M 103.0038,184.2000 L 103.0038,172.7000 L 226.4038,172.7000 L 226.4038,184.2000 L 103.0038,184.2000 z " style="fill: #ffffff; fill-opacity: 0.00; stroke: none;" id="ezcGraphPolygon_95"/><text id="ezcGraphTextBox_83_text" x="103.5038" text-length="121.9000px" y="181.7000" style="font-size: 10px; font-family: 'arial'; fill: #113388; fill-opacity: 1.00; stroke: none;">Mon&#xE9;taire Euro (3.95%) </text></g><g id="ezcGraphTextBox_87"><path d=" M 353.1664,36.0000 L 353.1664,24.5000 L 529.5664,24.5000 L 529.5664,36.0000 L 353.1664,36.0000 z " style="fill: #ffffff; fill-opacity: 0.00; stroke: none;" id="ezcGraphPolygon_96"/><text id="ezcGraphTextBox_87_text" x="353.6664" text-length="174.9000px" y="33.5000" style="font-size: 10px; font-family: 'arial'; fill: #113388; fill-opacity: 1.00; stroke: none;">Actions Internationales (41.76%) </text></g><g id="ezcGraphTextBox_91"><path d=" M 385.9230,162.0000 L 385.9230,150.5000 L 461.6230,150.5000 L 461.6230,162.0000 L 385.9230,162.0000 z " style="fill: #ffffff; fill-opacity: 0.00; stroke: none;" id="ezcGraphPolygon_97"/><text id="ezcGraphTextBox_91_text" x="386.4230" text-length="74.2000px" y="159.5000" style="font-size: 10px; font-family: 'arial'; fill: #113388; fill-opacity: 1.00; stroke: none;">SCPI (27.55%) </text></g></svg>
